<?xml version="1.0" encoding="UTF-8" standalone="no"?>
<!-- Created with Inkscape (http://www.inkscape.org/) -->

<svg
   xmlns:dc="http://purl.org/dc/elements/1.1/"
   xmlns:cc="http://creativecommons.org/ns#"
   xmlns:rdf="http://www.w3.org/1999/02/22-rdf-syntax-ns#"
   xmlns:svg="http://www.w3.org/2000/svg"
   xmlns="http://www.w3.org/2000/svg"
   xmlns:sodipodi="http://sodipodi.sourceforge.net/DTD/sodipodi-0.dtd"
   xmlns:inkscape="http://www.inkscape.org/namespaces/inkscape"
   id="svg4198"
   version="1.1"
   inkscape:version="0.91 r13725"
   width="120"
   height="120"
   viewBox="0 0 120 120"
   sodipodi:docname="TSLintVue_icon.svg"
   inkscape:export-filename="/home/david/projects/code/test/vscode-tslint/tslint/TSLintVue_icon.png"
   inkscape:export-xdpi="90"
   inkscape:export-ydpi="90">
  <metadata
     id="metadata4204">
    <rdf:RDF>
      <cc:Work
         rdf:about="">
        <dc:format>image/svg+xml</dc:format>
        <dc:type
           rdf:resource="http://purl.org/dc/dcmitype/StillImage" />
        <dc:title></dc:title>
      </cc:Work>
    </rdf:RDF>
  </metadata>
  <defs
     id="defs4202" />
  <sodipodi:namedview
     pagecolor="#ffffff"
     bordercolor="#666666"
     borderopacity="1"
     objecttolerance="10"
     gridtolerance="10"
     guidetolerance="10"
     inkscape:pageopacity="0"
     inkscape:pageshadow="2"
     inkscape:window-width="1920"
     inkscape:window-height="1016"
     id="namedview4200"
     showgrid="false"
     inkscape:zoom="1.4142136"
     inkscape:cx="132.21136"
     inkscape:cy="-7.7905578"
     inkscape:window-x="0"
     inkscape:window-y="27"
     inkscape:window-maximized="1"
     inkscape:current-layer="svg4198" />
  <ellipse
     style="fill:#162740;fill-opacity:1;stroke:none;stroke-width:13;stroke-linecap:butt;stroke-linejoin:miter;stroke-miterlimit:4;stroke-dasharray:none;stroke-opacity:1"
     id="path6755"
     cx="60.437988"
     cy="60.156853"
     rx="61"
     ry="59.5" />
  <flowRoot
     xml:space="preserve"
     id="flowRoot6757"
     style="font-style:normal;font-variant:normal;font-weight:bold;font-stretch:normal;font-size:40px;line-height:125%;font-family:'Open Sans';-inkscape-font-specification:'Open Sans Bold';letter-spacing:2px;word-spacing:0px;fill:#000000;fill-opacity:1;stroke:none;stroke-width:1px;stroke-linecap:butt;stroke-linejoin:miter;stroke-opacity:1"
     transform="matrix(0.92773679,0,0,0.92773679,-284.45586,-1.517628)"><flowRegion
       id="flowRegion6759"><rect
         id="rect6761"
         width="75"
         height="60"
         x="349"
         y="14"
         style="font-style:normal;font-variant:normal;font-weight:bold;font-stretch:normal;font-family:'Open Sans';-inkscape-font-specification:'Open Sans Bold'" /></flowRegion><flowPara
       id="flowPara6763"
       style="font-style:normal;font-variant:normal;font-weight:bold;font-stretch:normal;font-size:40px;font-family:'Open Sans';-inkscape-font-specification:'Open Sans Bold';fill:#ffffff">TS</flowPara></flowRoot>  <flowRoot
     xml:space="preserve"
     id="flowRoot6757-8"
     style="font-style:normal;font-variant:normal;font-weight:bold;font-stretch:normal;font-size:40px;line-height:200%;font-family:'Open Sans';-inkscape-font-specification:'Open Sans Bold';letter-spacing:2px;word-spacing:0px;fill:#000000;fill-opacity:1;stroke:none;stroke-width:1px;stroke-linecap:butt;stroke-linejoin:miter;stroke-opacity:1"
     transform="translate(-315.25304,14.9934)"><flowRegion
       id="flowRegion6759-5"><rect
         id="rect6761-5"
         width="112"
         height="54"
         x="349"
         y="14"
         style="font-style:normal;font-variant:normal;font-weight:bold;font-stretch:normal;line-height:200%;font-family:'Open Sans';-inkscape-font-specification:'Open Sans Bold'" /></flowRegion><flowPara
       id="flowPara6763-0"
       style="font-style:normal;font-variant:normal;font-weight:600;font-stretch:normal;font-size:27.5px;line-height:200%;font-family:'Open Sans';-inkscape-font-specification:'Open Sans Semi-Bold';fill:#ffffff">Lint</flowPara></flowRoot>  <flowRoot
     xml:space="preserve"
     id="flowRoot6757-8-7"
     style="font-style:normal;font-variant:normal;font-weight:bold;font-stretch:normal;font-size:40px;line-height:200%;font-family:'Open Sans';-inkscape-font-specification:'Open Sans Bold';letter-spacing:2px;word-spacing:0px;fill:#41b883;fill-opacity:1;stroke:none;stroke-width:1px;stroke-linecap:butt;stroke-linejoin:miter;stroke-opacity:1;"
     transform="matrix(0.82233411,0,0,0.82233411,-248.66161,54.4705)"><flowRegion
       id="flowRegion6759-5-3"><rect
         id="rect6761-5-8"
         width="112"
         height="54"
         x="349"
         y="14"
         style="font-style:normal;font-variant:normal;font-weight:bold;font-stretch:normal;line-height:200%;font-family:'Open Sans';-inkscape-font-specification:'Open Sans Bold';fill:#41b883;fill-opacity:1;" /></flowRegion><flowPara
       id="flowPara6763-0-2"
       style="font-style:normal;font-variant:normal;font-weight:bold;font-stretch:normal;font-size:27.5px;line-height:200%;font-family:'Open Sans';-inkscape-font-specification:'Open Sans Bold';fill:#41b883;fill-opacity:1;">Vue</flowPara></flowRoot>  <path
     style="fill:#ed1c24;fill-opacity:1;fill-rule:evenodd;stroke:none;stroke-width:1px;stroke-linecap:butt;stroke-linejoin:miter;stroke-opacity:1"
     d="m 37.268207,80.287694 c 0.009,-0.41192 0.71515,-0.36964 0.88389,-0.70711 0.0263,-0.0527 -0.0263,-0.12407 0,-0.17678 0.0373,-0.0745 0.13951,-0.10224 0.17677,-0.17677 0.0264,-0.0527 -0.0417,-0.13511 0,-0.17678 0.0417,-0.0417 0.13511,0.0417 0.17678,0 0.0417,-0.0417 -0.0263,-0.12407 0,-0.17678 0.087,-0.17395 0.62013,-0.53315 0.70711,-0.7071 0.0264,-0.0527 -0.0417,-0.13511 0,-0.17678 0.0417,-0.0417 0.13511,0.0417 0.17677,0 0.0417,-0.0417 -0.0264,-0.12407 0,-0.17678 0.0472,-0.0944 0.43727,-0.43726 0.53033,-0.53033 0.10397,-0.10397 0.62525,-0.66617 0.70711,-0.70711 0.0527,-0.0264 0.12407,0.0263 0.17678,0 0.14907,-0.0745 0.20448,-0.27901 0.35355,-0.35355 0.0527,-0.0264 0.12407,0.0263 0.17678,0 0.0745,-0.0373 0.10224,-0.13951 0.17677,-0.17678 0.0527,-0.0263 0.13511,0.0417 0.17678,0 0.0417,-0.0417 -0.0589,-0.17677 0,-0.17677 0.0833,0 0.11785,0.11785 0.17678,0.17677 0.0589,0.0589 0.11785,0.11786 0.17677,0.17678 0.0589,0.0589 0.13951,0.10224 0.17678,0.17678 0.12192,0.24384 -0.21409,0.15812 0.17678,0.35355 0.0527,0.0264 0.13511,-0.0417 0.17677,0 0.36576,0.36576 -0.55892,-0.0143 0.17678,0.35355 0.0527,0.0264 0.13511,-0.0417 0.17678,0 0.0833,0.0833 -0.0527,0.24815 0,0.35356 0.0373,0.0745 0.11785,0.11785 0.17677,0.17677 0.0589,0.0589 0.10225,0.13951 0.17678,0.17678 0.10541,0.0527 0.27022,-0.0833 0.35355,0 0.0417,0.0417 -0.0417,0.13511 0,0.17678 0.0417,0.0417 0.12408,-0.0264 0.17678,0 0.14907,0.0745 0.20448,0.27902 0.35355,0.35355 0.0527,0.0263 0.12408,-0.0263 0.17678,0 0.0745,0.0373 0.10224,0.13951 0.17678,0.17678 0.0363,0.0181 0.5054,0.0249 0.53033,0 0.0417,-0.0417 -0.0417,-0.13511 0,-0.17678 0.0417,-0.0417 0.13511,0.0417 0.17677,0 0.0417,-0.0417 -0.0417,-0.13511 0,-0.17677 0.0417,-0.0417 0.13511,0.0417 0.17678,0 0.0417,-0.0417 -0.0263,-0.12408 0,-0.17678 0.0745,-0.14907 0.27902,-0.20448 0.35355,-0.35356 0.0264,-0.0527 0,-0.11785 0,-0.17677 0.0589,-0.0589 0.13951,-0.10224 0.17678,-0.17678 0.0527,-0.10541 -0.0833,-0.27022 0,-0.35355 0.0417,-0.0417 0.12407,0.0263 0.17678,0 0.7357,-0.36785 -0.18898,0.0122 0.17677,-0.35356 0.0417,-0.0417 0.13511,0.0417 0.17678,0 0.0417,-0.0417 -0.0263,-0.12407 0,-0.17677 0.0373,-0.0745 0.13951,-0.10224 0.17678,-0.17678 0.0263,-0.0527 -0.0417,-0.13511 0,-0.17678 0.0417,-0.0417 0.13511,0.0417 0.17677,0 0.0417,-0.0417 -0.0264,-0.12407 0,-0.17677 0.0373,-0.0745 0.11786,-0.11785 0.17678,-0.17678 0.0589,-0.0589 0.10224,-0.13951 0.17678,-0.17678 0.0527,-0.0264 0.11785,0 0.17678,0 0.0589,0 0.12407,-0.0264 0.17677,0 0.0745,0.0373 0.10224,0.13951 0.17678,0.17678 0.0527,0.0264 0.12407,-0.0263 0.17678,0 0.0745,0.0373 0.10224,0.13951 0.17677,0.17678 0.0527,0.0263 0.12407,-0.0264 0.17678,0 0.21213,0.10606 0.3182,0.42426 0.53033,0.53033 0.0527,0.0264 0.13511,-0.0417 0.17678,0 0.0417,0.0417 -0.0417,0.13511 0,0.17677 0.4714,0 -0.0589,-0.0589 0.17677,0.17678 0.0417,0.0417 0.12407,-0.0263 0.17678,0 0.21213,0.10607 0.3182,0.42427 0.53033,0.53033 0.0527,0.0263 0.13511,-0.0417 0.17678,0 0.0417,0.0417 -0.0417,0.13511 0,0.17678 0.36575,0.36576 -0.0143,-0.55893 0.35355,0.17677 0,0.47141 -0.0589,-0.0589 0.17678,0.17678 0.0417,0.0417 -0.0263,0.12407 0,0.17678 0.0575,0.11499 0.20725,0.24993 0.35355,0.17678 0.7357,-0.36786 -0.18898,0.0122 0.17678,-0.35356 0.0417,-0.0417 0.13511,0.0417 0.17677,0 0.0417,-0.0417 -0.0417,-0.13511 0,-0.17678 0.0417,-0.0417 0.13511,0.0417 0.17678,0 0.0417,-0.0417 -0.0417,-0.13511 0,-0.17677 0.0417,-0.0417 0.13511,0.0417 0.17678,0 0.0417,-0.0417 -0.0263,-0.12407 0,-0.17678 0.0373,-0.0745 0.11785,-0.11785 0.17677,-0.17678 0.0589,-0.0589 0.10224,-0.1395 0.17678,-0.17677 0.0527,-0.0264 0.13511,0.0417 0.17678,0 0.0417,-0.0417 -0.0263,-0.12407 0,-0.17678 0.36785,-0.7357 -0.0122,0.18898 0.35355,-0.17678 0.0417,-0.0417 -0.0417,-0.13511 0,-0.17677 0.36576,-0.36576 -0.0143,0.55892 0.35355,-0.17678 0.0263,-0.0527 -0.0417,-0.13511 0,-0.17678 0.0417,-0.0417 0.13511,0.0417 0.17678,0 0.0417,-0.0417 -0.0417,-0.13511 0,-0.17677 0.0417,-0.0417 0.12407,0.0263 0.17678,0 0.0982,-0.0491 0.29655,-0.35356 0.35355,-0.35356 0.0142,0 0.64219,0.64219 0.70711,0.70711 0.1389,0.13891 0.82758,0.77128 0.88388,0.88388 0.0264,0.0527 -0.0417,0.13511 0,0.17678 0.23762,0.23763 0.11593,-0.23762 0.35355,0 0.0417,0.0417 -0.0417,0.13511 0,0.17678 0.0417,0.0417 0.13511,-0.0417 0.17678,0 0,0.4714 -0.0589,-0.0589 0.17678,0.17677 0.0417,0.0417 -0.0417,0.13511 0,0.17678 0.0417,0.0417 0.13511,-0.0417 0.17677,0 0.0417,0.0417 -0.0417,0.13511 0,0.17678 0.0417,0.0417 0.13511,-0.0417 0.17678,0 0.0417,0.0417 -0.0417,0.13511 0,0.17678 0.0833,0.0833 0.27022,-0.0833 0.35355,0 0,0.4714 -0.0589,-0.0589 0.17678,0.17677 0.0417,0.0417 -0.0589,0.17678 0,0.17678 0.36785,0 0.0711,-0.24791 0.17678,-0.35355 0.0417,-0.0417 0.12407,0.0264 0.17677,0 0.0745,-0.0373 0.11785,-0.11786 0.17678,-0.17678 0.0589,-0.0589 0.13951,-0.10224 0.17678,-0.17678 0.0263,-0.0527 -0.0417,-0.13511 0,-0.17678 0.0417,-0.0417 0.13511,0.0417 0.17677,0 0.0417,-0.0417 -0.0417,-0.13511 0,-0.17677 0.0417,-0.0417 0.13511,0.0417 0.17678,0 0.0417,-0.0417 -0.0417,-0.13511 0,-0.17678 0.0417,-0.0417 0.13511,0.0417 0.17678,0 0.0417,-0.0417 -0.0417,-0.13511 0,-0.17678 0.0417,-0.0417 0.12407,0.0264 0.17677,0 0.73571,-0.36785 -0.18898,0.0122 0.17678,-0.35355 0.0417,-0.0417 0.12407,0.0264 0.17678,0 0.21213,-0.10606 0.31819,-0.42426 0.53033,-0.53033 0.0527,-0.0264 0.13511,0.0417 0.17677,0 0.0417,-0.0417 -0.0417,-0.13511 0,-0.17678 0.0417,-0.0417 0.12408,0.0264 0.17678,0 0.0745,-0.0373 0.10224,-0.1395 0.17678,-0.17677 0.0527,-0.0264 0.11785,0 0.17677,0 0.0589,0 0.12408,-0.0264 0.17678,0 0.0745,0.0373 0.10224,0.13951 0.17678,0.17677 0.0527,0.0264 0.13511,-0.0417 0.17677,0 0.36576,0.36576 -0.55892,-0.0143 0.17678,0.35356 0.0527,0.0264 0.13511,-0.0417 0.17678,0 0.0417,0.0417 -0.0264,0.12407 0,0.17677 0.0373,0.0745 0.11785,0.11786 0.17677,0.17678 0.0589,0.0589 0.10224,0.13951 0.17678,0.17678 0.24384,0.12192 0.15812,-0.21409 0.35355,0.17677 0.0263,0.0527 -0.0417,0.13511 0,0.17678 0.0417,0.0417 0.13511,-0.0417 0.17678,0 0.0417,0.0417 -0.0417,0.13511 0,0.17678 0.36576,0.36576 -0.0143,-0.55893 0.35355,0.17677 0.0264,0.0527 -0.0417,0.13511 0,0.17678 0.0417,0.0417 0.13511,-0.0417 0.17678,0 0.36576,0.36576 -0.55892,-0.0143 0.17678,0.35356 0.10541,0.0527 0.27022,-0.0833 0.35355,0 0.0417,0.0417 -0.0417,0.13511 0,0.17677 0.0417,0.0417 0.12407,-0.0263 0.17678,0 0.14374,0.0719 0.14626,0.28042 0.35355,0.17678 0.34702,-0.17351 0.0796,-0.33595 0.17678,-0.53033 0.0745,-0.14907 0.27902,-0.20448 0.35355,-0.35356 0.0263,-0.0527 -0.0417,-0.13511 0,-0.17677 0.36576,-0.36576 -0.0143,0.55892 0.35355,-0.17678 0.0263,-0.0527 -0.0264,-0.12407 0,-0.17678 0.0373,-0.0745 0.11786,-0.11785 0.17678,-0.17677 0.0589,-0.0589 0.10224,-0.13951 0.17678,-0.17678 0.0527,-0.0263 0.12407,0.0264 0.17677,0 0.0745,-0.0373 0.10225,-0.13951 0.17678,-0.17678 0.0527,-0.0264 0.13511,0.0417 0.17678,0 0.0417,-0.0417 -0.0417,-0.13511 0,-0.17677 0.0417,-0.0417 0.13511,0.0417 0.17677,0 0.0417,-0.0417 -0.0417,-0.13511 0,-0.17678 0.0417,-0.0417 0.13511,0.0417 0.17678,0 0.0417,-0.0417 -0.0417,-0.13511 0,-0.17678 0.0417,-0.0417 0.13511,0.0417 0.17678,0 0.0417,-0.0417 -0.0417,-0.13511 0,-0.17677 0.0417,-0.0417 0.13511,0.0417 0.17677,0 0.0833,-0.0833 -0.0833,-0.27022 0,-0.35356 0.36576,-0.36575 -0.0143,0.55893 0.35356,-0.17677 0,-0.47141 -0.0589,0.0589 0.17677,-0.17678 0.0417,-0.0417 -0.0589,-0.17678 0,-0.17678 0.13511,0 0.35271,0.52907 0.35356,0.53033 0.0924,0.13868 0.27902,0.20449 0.35355,0.35356 0.0264,0.0527 -0.0263,0.12407 0,0.17677 0.0745,0.14908 0.27902,0.20449 0.35355,0.35356 0.0527,0.10541 -0.0833,0.27022 0,0.35355 0.0417,0.0417 0.12408,-0.0263 0.17678,0 0.21213,0.10607 0.3182,0.42427 0.53033,0.53033 0.0527,0.0263 0.13511,-0.0417 0.17678,0 0.0417,0.0417 -0.0417,0.13511 0,0.17678 0.0417,0.0417 0.12407,-0.0263 0.17678,0 0.0745,0.0373 0.2357,0.11785 0.17677,0.17677 -0.0589,0.0589 -0.26011,-0.17677 -0.17677,-0.17677 0.13176,0 0.22855,0.13511 0.35355,0.17677 0.0559,0.0186 0.11785,0 0.17678,0 0.0589,0 0.2357,0 0.17677,0 -0.11785,0 -0.4714,0 -0.35355,0 0.17678,0 0.35883,0.0429 0.53033,0 0.16169,-0.0404 0.20448,-0.27901 0.35355,-0.35355 0.0527,-0.0264 0.13511,0.0417 0.17678,0 0.0417,-0.0417 -0.0417,-0.13511 0,-0.17678 0.0417,-0.0417 0.13511,0.0417 0.17678,0 0.0417,-0.0417 -0.0417,-0.13511 0,-0.17677 0.0417,-0.0417 0.13511,0.0417 0.17677,0 0.0417,-0.0417 -0.0417,-0.13511 0,-0.17678 0.0417,-0.0417 0.13511,0.0417 0.17678,0 0.0417,-0.0417 -0.0417,-0.13511 0,-0.17678 0.0833,-0.0833 0.27022,0.0833 0.35355,0 0.0417,-0.0417 -0.0417,-0.13511 0,-0.17677 0.0417,-0.0417 0.12407,0.0264 0.17678,0 0.14907,-0.0745 0.20448,-0.27902 0.35355,-0.35356 0.0527,-0.0263 0.13511,0.0417 0.17678,0 0.0417,-0.0417 -0.0417,-0.13511 0,-0.17677 0.0417,-0.0417 0.12407,0.0263 0.17678,0 0.0745,-0.0373 0.10224,-0.13951 0.17677,-0.17678 0.47141,0 -0.0589,0.0589 0.17678,-0.17678 0.0417,-0.0417 0.13511,0.0417 0.17678,0 0.0417,-0.0417 -0.0417,-0.13511 0,-0.17677 0.0932,-0.0932 0.44672,0.0836 0.35355,0.17677 -0.0589,0.0589 -0.2357,-0.2357 -0.17678,-0.17677 0.11785,0.11785 0.2357,0.2357 0.35356,0.35355 0.0589,0.0589 0.10224,0.13951 0.17677,0.17678 0.0527,0.0263 0.13511,-0.0417 0.17678,0 0.0417,0.0417 -0.0417,0.13511 0,0.17677 0.0417,0.0417 0.13511,-0.0417 0.17678,0 0.0417,0.0417 -0.0264,0.12408 0,0.17678 0.0745,0.14907 0.27901,0.20448 0.35355,0.35355 0.0263,0.0527 -0.0417,0.13511 0,0.17678 0.0417,0.0417 0.13511,-0.0417 0.17678,0 0.0417,0.0417 -0.0417,0.13511 0,0.17678 0.0417,0.0417 0.13511,-0.0417 0.17677,0 0.0417,0.0417 -0.0417,0.13511 0,0.17677 0.0417,0.0417 0.12407,-0.0263 0.17678,0 0.21213,0.10607 0.3182,0.42427 0.53033,0.53033 0.0527,0.0263 0.13511,-0.0417 0.17678,0 0.0417,0.0417 -0.0417,0.13511 0,0.17678 0.0417,0.0417 0.13511,-0.0417 0.17677,0 0.0417,0.0417 -0.0417,0.13511 0,0.17678 0.0417,0.0417 0.13511,-0.0417 0.17678,0 0.0417,0.0417 -0.0417,0.13511 0,0.17678 0.17213,0.17213 0.42932,-0.30306 0.53033,-0.35356 0.0527,-0.0263 0.13511,0.0417 0.17678,0 0.0417,-0.0417 -0.0417,-0.13511 0,-0.17678 0.0833,-0.0833 0.27022,0.0833 0.35355,0 0.0417,-0.0417 -0.0417,-0.13511 0,-0.17677 0.0417,-0.0417 0.13511,0.0417 0.17678,0 0.0417,-0.0417 -0.0417,-0.13511 0,-0.17678 0.0417,-0.0417 0.12407,0.0263 0.17677,0 0.0745,-0.0373 0.10224,-0.13951 0.17678,-0.17678 0.0527,-0.0263 0.13511,0.0417 0.17678,0 0.0417,-0.0417 -0.0417,-0.13511 0,-0.17677 0.4714,0 -0.0589,0.0589 0.17677,-0.17678 0.0417,-0.0417 0.13511,0.0417 0.17678,0 0.0417,-0.0417 -0.0417,-0.13511 0,-0.17678 0.36576,-0.36575 -0.0143,0.55893 0.35355,-0.17677 0.0263,-0.0527 -0.0263,-0.12407 0,-0.17678 0.0745,-0.14907 0.27902,-0.20448 0.35356,-0.35355 0.0263,-0.0527 -0.0417,-0.13511 0,-0.17678 0.0417,-0.0417 0.13511,0.0417 0.17677,0 0.0417,-0.0417 -0.0417,-0.13511 0,-0.17678 0.0417,-0.0417 0.13511,0.0417 0.17678,0 0.0417,-0.0417 -0.0589,-0.17677 0,-0.17677 0.0833,0 0.11785,0.11785 0.17678,0.17677 0.1389,0.13891 0.82758,0.77129 0.88388,0.88389 0.0264,0.0527 -0.0417,0.13511 0,0.17677 0.0417,0.0417 0.13511,-0.0417 0.17678,0 0.0417,0.0417 -0.0417,0.13511 0,0.17678 0.0417,0.0417 0.13511,-0.0417 0.17677,0 0.0417,0.0417 -0.0417,0.13511 0,0.17678 0.0417,0.0417 0.13511,-0.0417 0.17678,0 0.0417,0.0417 0,0.11785 0,0.17677 0.0589,0 0.12407,-0.0263 0.17678,0 0.0745,0.0373 0.11785,0.11786 0.17677,0.17678 0.0589,0.0589 0.13951,0.10224 0.17678,0.17678 0.0263,0.0527 -0.0264,0.12407 0,0.17677 0.36785,0.73571 -0.0122,-0.18898 0.35355,0.17678 0.0417,0.0417 -0.0417,0.13511 0,0.17678 0.0417,0.0417 0.12408,0.0263 0.17678,0 0.0745,-0.0373 0.11785,-0.11785 0.17678,-0.17678 0.0589,-0.0589 0.13951,-0.10224 0.17677,-0.17678 0.0263,-0.0527 -0.0417,-0.13511 0,-0.17677 0.0417,-0.0417 0.13511,0.0417 0.17678,0 0.36576,-0.36576 -0.55892,0.0143 0.17678,-0.35356 0.4714,0 -0.0589,0.0589 0.17677,-0.17677 0.0417,-0.0417 0.13511,0.0417 0.17678,0 0.36576,-0.36576 -0.55892,0.0143 0.17678,-0.35356 0.0527,-0.0264 0.12407,0.0263 0.17677,0 0.0745,-0.0373 0.10225,-0.1395 0.17678,-0.17677 0.0527,-0.0263 0.13511,0.0417 0.17678,0 0.0417,-0.0417 -0.0417,-0.13511 0,-0.17678 0.0425,-0.0425 0.66457,0.0425 0.7071,0 0.23571,-0.2357 -0.29462,-0.17678 0.17678,-0.17678 0.47141,0 -0.0589,0.0589 0.17678,-0.17677 0.0417,-0.0417 0.12407,0.0263 0.17677,0 0.0745,-0.0373 0.10225,-0.13951 0.17678,-0.17678 0.0527,-0.0263 0.17678,-0.0589 0.17678,0 0,0.0589 -0.21845,-0.0417 -0.17678,0 0.0932,0.0932 0.24392,0.10369 0.35355,0.17678 0.13868,0.0924 0.20449,0.27902 0.35356,0.35355 0.0527,0.0263 0.11785,0 0.17677,0 0.0589,0.0589 0.10225,0.13951 0.17678,0.17678 0.0527,0.0264 0.13511,-0.0417 0.17678,0 0.0417,0.0417 -0.0417,0.13511 0,0.17677 0.0417,0.0417 0.13511,-0.0417 0.17677,0 0.0417,0.0417 -0.0263,0.12408 0,0.17678 0.0745,0.14907 0.27902,0.20448 0.35356,0.35355 0.0263,0.0527 -0.0417,0.13511 0,0.17678 0.0417,0.0417 0.13511,-0.0417 0.17677,0 0.0417,0.0417 -0.0263,0.12407 0,0.17678 0.0409,0.0819 0.60314,0.60313 0.70711,0.70711 0.0589,0.0589 0.13951,0.10224 0.17678,0.17677 0.0527,0.10541 -0.0527,0.24815 0,0.35356 0.36785,0.7357 -0.0122,-0.18899 0.35355,0.17677 0.0417,0.0417 -0.0263,0.12407 0,0.17678 0.0373,0.0745 0.13951,0.10224 0.17678,0.17678 0.0264,0.0527 -0.0417,0.13511 0,0.17677 0.0417,0.0417 0.13511,-0.0417 0.17677,0 0.0417,0.0417 -0.0417,0.13511 0,0.17678 0.0417,0.0417 0.11786,0 0.17678,0 0,0.0589 -0.0264,0.12407 0,0.17678 0.0373,0.0745 0.11785,0.11785 0.17678,0.17677 0.0589,0.0589 0.10224,0.13951 0.17678,0.17678 0.0527,0.0263 0.13511,-0.0417 0.17677,0 0.0417,0.0417 -0.0417,0.13511 0,0.17678 0.0417,0.0417 0.13511,-0.0417 0.17678,0 0.0417,0.0417 -0.0264,0.12407 0,0.17677 0.21844,0.43689 0.17678,-0.061 0.17678,0.35356 0,0.0589 0.0417,0.13511 0,0.17677 -0.008,0.008 -0.80054,0 -0.88389,0 -0.0589,0 -0.13511,0.0417 -0.17678,0 -0.0417,-0.0417 0.0417,-0.13511 0,-0.17677 -0.0417,-0.0417 -0.11785,0 -0.17677,0 -0.0589,0 -0.11785,0 -0.17678,0 -0.0589,0 -0.12407,-0.0264 -0.17678,0 -0.0745,0.0373 -0.10224,0.13951 -0.17677,0.17677 -0.0527,0.0264 -0.12407,-0.0263 -0.17678,0 -0.0745,0.0373 -0.10224,0.13951 -0.17678,0.17678 -0.0527,0.0263 -0.11785,0 -0.17677,0 -0.0589,0 -0.12407,0.0263 -0.17678,0 -0.0338,-0.0169 -0.69019,-0.67327 -0.70711,-0.70711 -0.0527,-0.10541 0.0833,-0.27022 0,-0.35355 -0.0417,-0.0417 -0.13511,0.0417 -0.17677,0 -0.0417,-0.0417 0.0263,-0.12407 0,-0.17678 -0.0745,-0.14907 -0.27902,-0.20448 -0.35356,-0.35355 -0.0528,-0.10565 0.11638,-0.35355 -0.17677,-0.35355 -0.0833,0 -0.11785,0.11785 -0.17678,0.17677 -0.0589,0.0589 -0.10224,0.13951 -0.17678,0.17678 -0.0527,0.0264 -0.13511,-0.0417 -0.17677,0 -0.0417,0.0417 0.0264,0.12407 0,0.17678 -0.0373,0.0745 -0.13951,0.10224 -0.17678,0.17677 -0.0264,0.0527 0.0417,0.13511 0,0.17678 -0.0417,0.0417 -0.13511,-0.0417 -0.17678,0 -0.0833,0.0833 0.0833,0.27022 0,0.35355 -0.0417,0.0417 -0.13511,-0.0417 -0.17677,0 -0.0417,0.0417 0.0417,0.13511 0,0.17678 -0.0417,0.0417 -0.13511,-0.0417 -0.17678,0 -0.0417,0.0417 0.0417,0.13511 0,0.17678 -0.36576,0.36575 0.0143,-0.55893 -0.35355,0.17677 -0.0263,0.0527 0.0264,0.12408 0,0.17678 -0.0373,0.0745 -0.13951,0.10224 -0.17678,0.17678 -0.0263,0.0527 0.0417,0.13511 0,0.17677 -0.0417,0.0417 -0.12407,-0.0263 -0.17678,0 -0.0745,0.0373 -0.11785,0.11785 -0.17677,0.17678 -0.0589,0.0589 -0.13951,0.10224 -0.17678,0.17678 -0.0263,0.0527 0.0417,0.13511 0,0.17677 -0.0417,0.0417 -0.13511,-0.0417 -0.17678,0 -0.0417,0.0417 0.0417,0.13511 0,0.17678 -0.0417,0.0417 -0.13511,0.0417 -0.17677,0 -0.0417,-0.0417 0.0263,-0.12407 0,-0.17678 -0.0473,-0.0946 -0.30627,-0.25897 -0.35356,-0.35355 -0.0263,-0.0527 0.0417,-0.13511 0,-0.17678 -0.0417,-0.0417 -0.13511,0.0417 -0.17677,0 -0.0417,-0.0417 0.0417,-0.13511 0,-0.17677 -0.0833,-0.0833 -0.27022,0.0833 -0.35356,0 -0.0417,-0.0417 0.0417,-0.13511 0,-0.17678 -0.0417,-0.0417 -0.12407,0.0263 -0.17677,0 -0.14907,-0.0745 -0.20449,-0.27902 -0.35356,-0.35355 -0.0527,-0.0264 -0.13511,0.0417 -0.17677,0 -0.0417,-0.0417 0.0417,-0.13511 0,-0.17678 -0.0417,-0.0417 -0.12407,0.0264 -0.17678,0 -0.0745,-0.0373 -0.10224,-0.13951 -0.17678,-0.17678 -0.0527,-0.0264 -0.12407,0.0264 -0.17677,0 -0.0745,-0.0373 -0.11785,-0.11785 -0.17678,-0.17677 -0.0589,-0.0589 -0.10224,-0.13951 -0.17678,-0.17678 -0.0527,-0.0264 -0.13511,0.0417 -0.17677,0 -0.0417,-0.0417 0.0417,-0.13511 0,-0.17678 -0.0417,-0.0417 -0.13511,0.0417 -0.17678,0 -0.0417,-0.0417 0.0417,-0.13511 0,-0.17677 -0.0417,-0.0417 -0.12407,0.0263 -0.17678,0 -0.0745,-0.0373 -0.10224,-0.13951 -0.17677,-0.17678 -0.0527,-0.0263 -0.17678,0.0589 -0.17678,0 0,-0.0528 0.58629,0.11637 0,-0.17678 -0.0527,-0.0263 -0.11785,0 -0.17678,0 -0.0589,0 -0.13511,-0.0417 -0.17677,0 -0.36576,0.36576 0.55892,-0.0143 -0.17678,0.35356 -0.10541,0.0527 -0.27022,-0.0833 -0.35355,0 -0.0417,0.0417 0.0417,0.13511 0,0.17677 -0.0417,0.0417 -0.12408,-0.0263 -0.17678,0 -0.0745,0.0373 -0.10224,0.13951 -0.17678,0.17678 -0.0527,0.0263 -0.13511,-0.0417 -0.17677,0 -0.0417,0.0417 0.0263,0.12407 0,0.17678 -0.0745,0.14907 -0.27902,0.20448 -0.35356,0.35355 -0.0263,0.0527 0.0417,0.13511 0,0.17678 -0.0417,0.0417 -0.13511,-0.0417 -0.17677,0 -0.0417,0.0417 0.0263,0.12407 0,0.17677 -0.087,0.17396 -0.62013,0.53316 -0.70711,0.70711 -0.0264,0.0527 0.0417,0.13511 0,0.17678 -0.0417,0.0417 -0.13511,-0.0417 -0.17678,0 -0.0417,0.0417 0.0417,0.13511 0,0.17677 -0.0833,0.0833 -0.24814,-0.0527 -0.35355,0 -0.14374,0.0719 -0.14627,0.28042 -0.35355,0.17678 -0.0745,-0.0373 -0.11785,-0.11785 -0.17678,-0.17678 -0.0589,-0.0589 -0.13951,-0.10224 -0.17678,-0.17677 -0.0263,-0.0527 0.0264,-0.12407 0,-0.17678 -0.0745,-0.14907 -0.27901,-0.20448 -0.35355,-0.35355 -0.0263,-0.0527 0,-0.11785 0,-0.17678 -0.0589,-0.0589 -0.13951,-0.10224 -0.17678,-0.17678 -0.0263,-0.0527 0.0417,-0.13511 0,-0.17677 -0.0417,-0.0417 -0.13511,0.0417 -0.17677,0 -0.0833,-0.0833 0.0527,-0.24815 0,-0.35356 -0.0373,-0.0745 -0.13951,-0.10224 -0.17678,-0.17677 -0.0263,-0.0527 0.0417,-0.13511 0,-0.17678 -0.36576,-0.36576 0.0143,0.55893 -0.35355,-0.17678 -0.0264,-0.0527 0.0263,-0.12407 0,-0.17677 -0.0235,-0.0469 -0.4834,-0.50687 -0.53033,-0.53033 -0.0527,-0.0263 -0.13511,0.0417 -0.17678,0 -0.0417,-0.0417 0.0417,-0.13511 0,-0.17678 -0.0177,-0.0177 -0.51265,-0.0177 -0.53033,0 -0.0417,0.0417 0.0417,0.13511 0,0.17678 -0.0417,0.0417 -0.13511,-0.0417 -0.17678,0 -0.36575,0.36575 0.55893,-0.0143 -0.17677,0.35355 -0.0527,0.0264 -0.13511,-0.0417 -0.17678,0 -0.0417,0.0417 0.0264,0.12407 0,0.17678 -0.0373,0.0745 -0.11785,0.11785 -0.17678,0.17677 -0.1389,0.13891 -0.82758,0.77129 -0.88388,0.88389 0,0.4714 0.0589,-0.0589 -0.17678,0.17677 -0.0417,0.0417 0.0417,0.13511 0,0.17678 -0.0417,0.0417 -0.13511,-0.0417 -0.17677,0 -0.0417,0.0417 0.0417,0.13511 0,0.17678 -0.0833,0.0833 -0.27022,-0.0833 -0.35356,0 -0.0417,0.0417 0.0264,0.12407 0,0.17677 -0.19543,0.39087 -0.10971,0.0549 -0.35355,0.17678 -0.43689,0.21844 0.061,0.17678 -0.35355,0.17678 -0.0589,0 -0.11786,0 -0.17678,0 -0.0589,0 -0.12407,0.0263 -0.17678,0 -0.0745,-0.0373 -0.10224,-0.13951 -0.17677,-0.17678 -0.0527,-0.0263 -0.12408,0.0264 -0.17678,0 -0.0745,-0.0373 -0.10224,-0.13951 -0.17678,-0.17678 -0.10541,-0.0527 -0.24814,0.0527 -0.35355,0 -0.0745,-0.0373 -0.11785,-0.11785 -0.17678,-0.17677 -0.0589,-0.0589 -0.13951,-0.10224 -0.17677,-0.17678 -0.0263,-0.0527 0.0417,-0.13511 0,-0.17678 -0.36576,-0.36575 0.0143,0.55893 -0.35356,-0.17677 -0.0527,-0.10541 0.0833,-0.27022 0,-0.35356 -0.0417,-0.0417 -0.12407,0.0264 -0.17678,0 -0.0745,-0.0373 -0.11785,-0.11785 -0.17677,-0.17677 -0.0589,-0.0589 -0.13951,-0.10224 -0.17678,-0.17678 -0.0527,-0.10541 0.0833,-0.27022 0,-0.35355 -0.0417,-0.0417 -0.13511,0.0417 -0.17678,0 -0.0417,-0.0417 0.0417,-0.13511 0,-0.17678 -0.0417,-0.0417 -0.13511,0.0417 -0.17677,0 -0.0417,-0.0417 0.0417,-0.13511 0,-0.17678 -0.0417,-0.0417 -0.12407,0.0264 -0.17678,0 -0.101,-0.0505 -0.3582,-0.52568 -0.53033,-0.35355 -0.0417,0.0417 0.0263,0.12407 0,0.17678 -0.0373,0.0745 -0.13951,0.10224 -0.17678,0.17677 -0.0263,0.0527 0.0264,0.12408 0,0.17678 -0.0373,0.0745 -0.11785,0.11785 -0.17677,0.17678 -0.10397,0.10397 -0.66618,0.62524 -0.70711,0.7071 -0.0264,0.0527 0.0263,0.12408 0,0.17678 -0.36785,0.7357 0.0122,-0.18898 -0.35355,0.17678 -0.0417,0.0417 0.0417,0.13511 0,0.17677 -0.0417,0.0417 -0.13511,-0.0417 -0.17678,0 -0.0417,0.0417 0,0.11785 0,0.17678 -0.0589,0 -0.13511,-0.0417 -0.17678,0 -0.0417,0.0417 0.0417,0.13511 0,0.17678 -0.0833,0.0833 -0.27022,-0.0833 -0.35355,0 -0.0417,0.0417 0.0263,0.12407 0,0.17677 -0.0373,0.0745 -0.11785,0.11785 -0.17678,0.17678 -0.25664,0.25664 -0.19136,0.17678 -0.53033,0.17678 -0.0589,0 -0.11785,0 -0.17677,0 -0.0589,0 -0.12407,0.0263 -0.17678,0 -0.0338,-0.0169 -0.69019,-0.67327 -0.70711,-0.70711 -0.0263,-0.0527 0.0417,-0.13511 0,-0.17678 -0.0417,-0.0417 -0.13511,0.0417 -0.17677,0 -0.0417,-0.0417 0.0263,-0.12407 0,-0.17677 -0.0373,-0.0745 -0.13951,-0.10224 -0.17678,-0.17678 -0.048,-0.0959 0.0484,-0.65874 0,-0.70711 -0.0417,-0.0417 -0.13511,0.0417 -0.17678,0 -0.0417,-0.0417 0.0263,-0.12407 0,-0.17677 -0.0373,-0.0745 -0.1395,-0.10224 -0.17677,-0.17678 -0.0264,-0.0527 0.0417,-0.13511 0,-0.17678 -0.0417,-0.0417 -0.12407,0.0264 -0.17678,0 -0.7357,-0.36785 0.18898,0.0122 -0.17678,-0.35355 -0.0417,-0.0417 -0.12407,0.0263 -0.17677,0 -0.42331,-0.21166 0.1114,-0.35355 -0.35356,-0.35355 -0.0589,0 -0.12407,-0.0264 -0.17677,0 -0.0469,0.0235 -0.50686,0.48339 -0.53033,0.53033 -0.0263,0.0527 0.0264,0.12407 0,0.17677 -0.0745,0.14907 -0.27902,0.20449 -0.35356,0.35356 -0.0264,0.0527 0.0263,0.12407 0,0.17677 -0.0745,0.14907 -0.27901,0.20449 -0.35355,0.35356 -0.0527,0.10541 0.0833,0.27022 0,0.35355 -0.0417,0.0417 -0.12407,-0.0263 -0.17678,0 -0.0745,0.0373 -0.10224,0.13951 -0.17677,0.17678 -0.0527,0.0263 -0.13511,-0.0417 -0.17678,0 -0.0417,0.0417 0.0417,0.13511 0,0.17677 -0.0417,0.0417 -0.13511,-0.0417 -0.17678,0 -0.0417,0.0417 0,0.11785 0,0.17678 -0.0589,0 -0.13511,-0.0417 -0.17677,0 -0.0833,0.0833 0.0833,0.27022 0,0.35355 -0.36576,0.36576 0.0143,-0.55892 -0.35356,0.17678 -0.0263,0.0527 0.0263,0.12407 0,0.17678 -0.0373,0.0745 -0.11785,0.11785 -0.17677,0.17677 -0.0589,0.0589 -0.10224,0.13951 -0.17678,0.17678 -0.0527,0.0263 -0.13511,-0.0417 -0.17678,0 -0.0417,0.0417 0.0417,0.13511 0,0.17678 -0.0417,0.0417 -0.11785,0 -0.17677,0 -0.0589,0 -0.11785,0 -0.17678,0 -0.0589,0 -0.12407,0.0264 -0.17678,0 -0.0745,-0.0373 -0.10224,-0.13951 -0.17677,-0.17678 -0.52022,-0.26011 0.23274,0.40952 -0.35356,-0.17678 -0.0589,-0.0589 -0.11785,-0.11785 -0.17677,-0.17677 -0.0589,-0.0589 -0.13951,-0.10224 -0.17678,-0.17678 -0.0263,-0.0527 0.0417,-0.13511 0,-0.17678 -0.0417,-0.0417 -0.13511,0.0417 -0.17678,0 -0.0417,-0.0417 0.0417,-0.13511 0,-0.17677 -0.0417,-0.0417 -0.13511,0.0417 -0.17677,0 -0.0417,-0.0417 0.0417,-0.13511 0,-0.17678 -0.0417,-0.0417 -0.13511,0.0417 -0.17678,0 -0.0417,-0.0417 0.0264,-0.12407 0,-0.17678 -0.0373,-0.0745 -0.13951,-0.10224 -0.17678,-0.17677 -0.0263,-0.0527 0.0417,-0.13511 0,-0.17678 -0.0417,-0.0417 -0.13511,0.0417 -0.17677,0 -0.0417,-0.0417 0.0417,-0.13511 0,-0.17678 -0.0417,-0.0417 -0.13511,0.0417 -0.17678,0 -0.0417,-0.0417 0.0264,-0.12407 0,-0.17677 -0.087,-0.17396 -0.62013,-0.53316 -0.70711,-0.70711 -0.0263,-0.0527 0.0417,-0.13511 0,-0.17678 -0.0417,-0.0417 -0.13511,0.0417 -0.17677,0 -0.0417,-0.0417 -0.0589,-0.17677 0,-0.17677 0.0833,0 0.2357,0.11785 0.17677,0.17677 -0.0833,0.0833 -0.24814,-0.0527 -0.35355,0 -0.0527,0.0264 0.0417,0.13511 0,0.17678 -0.0417,0.0417 -0.13511,-0.0417 -0.17678,0 -0.0417,0.0417 0.0263,0.12407 0,0.17678 -0.10606,0.21213 -0.42426,0.31819 -0.53033,0.53033 -0.0263,0.0527 0.0417,0.13511 0,0.17677 -0.0833,0.0833 -0.27022,-0.0833 -0.35355,0 -0.0417,0.0417 0.0263,0.12408 0,0.17678 -0.19543,0.39086 -0.10972,0.0549 -0.35355,0.17678 -0.73571,0.36785 0.18898,-0.0122 -0.17678,0.35355 -0.0417,0.0417 -0.12407,-0.0264 -0.17678,0 -0.0745,0.0373 -0.10224,0.13951 -0.17677,0.17678 -0.24384,0.12192 -0.15813,-0.21409 -0.35356,0.17677 -0.0263,0.0527 0.0417,0.13511 0,0.17678 -0.0833,0.0833 -0.24814,-0.0527 -0.35355,0 -0.0745,0.0373 -0.10224,0.13951 -0.17678,0.17678 -0.0527,0.0263 -0.17677,0.0589 -0.17677,0 0,-0.0908 0.91939,0.17677 -0.17678,0.17677 -0.0833,0 -0.10224,-0.13951 -0.17678,-0.17677 -0.24384,-0.12192 -0.15812,0.21408 -0.35355,-0.17678 -0.0263,-0.0527 0.0263,-0.12407 0,-0.17678 -0.0373,-0.0745 -0.11785,-0.11785 -0.17678,-0.17677 -0.0589,-0.0589 -0.10224,-0.13951 -0.17677,-0.17678 -0.24384,-0.12192 -0.15813,0.21409 -0.35356,-0.17678 -0.0527,-0.10541 0.0833,-0.27022 0,-0.35355 -0.0417,-0.0417 -0.12407,0.0264 -0.17677,0 -0.0944,-0.0472 -0.43727,-0.43726 -0.53033,-0.53033 -0.0931,-0.0931 -0.48313,-0.43592 -0.53033,-0.53033 -0.0263,-0.0527 0.0417,-0.13511 0,-0.17678 -0.36576,-0.36576 0.0143,0.55893 -0.35356,-0.17677 -0.0264,-0.0527 0.0589,-0.17678 0,-0.17678 -0.0833,0 -0.11785,0.11785 -0.17677,0.17678 -0.0589,0.0589 -0.11786,0.11785 -0.17678,0.17677 -0.0589,0.0589 -0.11785,0.11785 -0.17678,0.17678 -0.0589,0.0589 -0.13951,0.10224 -0.17678,0.17678 -0.0264,0.0527 0.0263,0.12407 0,0.17677 -0.0745,0.14907 -0.27901,0.20449 -0.35355,0.35356 -0.0263,0.0527 0.0264,0.12407 0,0.17677 -0.0373,0.0745 -0.13951,0.10224 -0.17678,0.17678 -0.0263,0.0527 0.0264,0.12407 0,0.17678 -0.0373,0.0745 -0.1395,0.10224 -0.17677,0.17677 -0.0263,0.0527 0.0417,0.13511 0,0.17678 -0.0417,0.0417 -0.12407,-0.0264 -0.17678,0 -0.0469,0.0235 -0.50686,0.48339 -0.53033,0.53033 -0.0263,0.0527 0.0417,0.13511 0,0.17678 -0.0833,0.0833 -0.27022,-0.0833 -0.35355,0 -0.0417,0.0417 0.0417,0.13511 0,0.17677 -0.0417,0.0417 -0.12407,-0.0264 -0.17678,0 -0.0745,0.0373 -0.10224,0.13951 -0.17678,0.17678 -0.0527,0.0263 -0.11785,0 -0.17677,0 -0.0589,0 -0.17678,0.0589 -0.17678,0 0,-0.0589 0.2357,0 0.17678,0 -0.25296,0 -0.40028,0.0833 -0.53033,-0.17678 -0.0263,-0.0527 0.0264,-0.12407 0,-0.17677 -0.18824,-0.37647 -0.16532,0.0229 -0.35356,-0.35356 -0.0264,-0.0527 0.0263,-0.12407 0,-0.17677 -0.0373,-0.0745 -0.1395,-0.10224 -0.17677,-0.17678 -0.0527,-0.10541 0.0833,-0.27022 0,-0.35355 -0.0417,-0.0417 -0.13511,0.0417 -0.17678,0 -0.0417,-0.0417 0.0264,-0.12408 0,-0.17678 -0.12467,-0.24935 -0.22888,-0.1042 -0.35355,-0.35355 -0.0263,-0.0527 0.0264,-0.12408 0,-0.17678 -0.0373,-0.0745 -0.11785,-0.11785 -0.17678,-0.17678 -0.0589,-0.0589 -0.11785,-0.11785 -0.17678,-0.17677 -0.0931,-0.0931 -0.43591,-0.48313 -0.53033,-0.53033 -0.0527,-0.0263 -0.13511,0.0417 -0.17677,0 -0.0417,-0.0417 0.0417,-0.13511 0,-0.17678 -0.0417,-0.0417 -0.11785,0 -0.17678,0 -0.0589,0 -0.11785,0 -0.17678,0 -0.0649,0 -0.69999,-0.007 -0.7071,0 -0.0417,0.0417 0.0417,0.13511 0,0.17678 -0.0417,0.0417 -0.12407,-0.0263 -0.17678,0 -0.0745,0.0373 -0.10224,0.1395 -0.17678,0.17677 -0.0527,0.0264 -0.12407,-0.0263 -0.17677,0 -0.14907,0.0745 -0.20448,0.27902 -0.35356,0.35356 -0.0527,0.0263 -0.13511,-0.0417 -0.17677,0 -0.0417,0.0417 0.0264,0.12407 0,0.17677 -0.0373,0.0745 -0.13951,0.10224 -0.17678,0.17678 -0.0263,0.0527 0.0417,0.13511 0,0.17678 -0.0417,0.0417 -0.13511,-0.0417 -0.17678,0 -0.006,0.006 0,0.48745 0,0.53033 0,0.41457 0.0417,-0.0833 -0.17677,0.35355 -0.0263,0.0527 0.0264,0.12407 0,0.17678 -0.0373,0.0745 -0.11785,0.2357 -0.17678,0.17677 -0.0589,-0.0589 0.17678,-0.26011 0.17678,-0.17677 0,0.13176 -0.10369,0.24392 -0.17678,0.35355 -0.0499,0.0749 -0.45719,0.49376 -0.53033,0.53033 -0.0527,0.0263 -0.13511,-0.0417 -0.17678,0 -0.0417,0.0417 0.0417,0.13511 0,0.17678 -0.0417,0.0417 -0.13511,0.0417 -0.17677,0 -0.0417,-0.0417 0.0263,-0.12407 0,-0.17678 -0.5863,-0.58629 0.0833,0.16667 -0.17678,-0.35355 -0.0373,-0.0745 -0.13951,-0.10224 -0.17678,-0.17678 -0.0351,-0.0701 0.0361,-0.49419 0,-0.53033 -0.0417,-0.0417 -0.13511,0.0417 -0.17677,0 -0.0417,-0.0417 0.0219,-0.12207 0,-0.17678 -0.0979,-0.24467 -0.23571,-0.4714 -0.35356,-0.7071 z"
     id="path6815"
     inkscape:connector-curvature="0" />
  <flowRoot
     xml:space="preserve"
     id="flowRoot6757-3"
     style="font-style:normal;font-variant:normal;font-weight:bold;font-stretch:normal;font-size:40px;line-height:125%;font-family:'Open Sans';-inkscape-font-specification:'Open Sans Bold';letter-spacing:2px;word-spacing:0px;fill:#41b883;fill-opacity:1;stroke:none;stroke-width:1px;stroke-linecap:butt;stroke-linejoin:miter;stroke-opacity:1;"
     transform="matrix(2.2916725,0,0,2.2916725,-795.93696,-35.820286)"><flowRegion
       id="flowRegion6759-0"><rect
         id="rect6761-7"
         width="75"
         height="60"
         x="349"
         y="14"
         style="font-style:normal;font-variant:normal;font-weight:bold;font-stretch:normal;font-family:'Open Sans';-inkscape-font-specification:'Open Sans Bold';fill:#41b883;fill-opacity:1;" /></flowRegion><flowPara
       id="flowPara6763-7"
       style="font-style:normal;font-variant:normal;font-weight:300;font-stretch:normal;font-size:40px;font-family:'Open Sans';-inkscape-font-specification:'Open Sans Light';fill:#41b883;fill-opacity:1;">{</flowPara></flowRoot>  <flowRoot
     xml:space="preserve"
     id="flowRoot6757-3-1"
     style="font-style:normal;font-variant:normal;font-weight:bold;font-stretch:normal;font-size:91.66690063px;line-height:125%;font-family:'Open Sans';-inkscape-font-specification:'Open Sans Bold';letter-spacing:4.58334494px;word-spacing:0px;fill:#41b883;fill-opacity:1;stroke:none;stroke-width:1px;stroke-linecap:butt;stroke-linejoin:miter;stroke-opacity:1;"
     transform="translate(90.033747,20.512655)"><flowRegion
       id="flowRegion6759-0-9"><rect
         id="rect6761-7-0"
         width="171.87544"
         height="137.50035"
         x="-2.7303128"
         y="-24.495157"
         style="font-style:normal;font-variant:normal;font-weight:bold;font-stretch:normal;font-family:'Open Sans';-inkscape-font-specification:'Open Sans Bold';fill:#41b883;fill-opacity:1;" /></flowRegion><flowPara
       id="flowPara6763-7-8"
       style="font-style:normal;font-variant:normal;font-weight:300;font-stretch:normal;font-size:91.66690063px;font-family:'Open Sans';-inkscape-font-specification:'Open Sans Light';fill:#41b883;fill-opacity:1;">}</flowPara></flowRoot></svg>
